<svg width="214" height="214" viewBox="0 0 214 214" fill="none" xmlns="http://www.w3.org/2000/svg">
<path d="M107 211.97C90.5114 211.97 76.9504 199.436 75.3259 183.376C62.8209 193.583 44.3687 192.857 32.7095 181.198C21.0503 169.539 20.3245 151.087 30.532 138.582C14.4719 136.957 1.93738 123.396 1.93738 106.908C1.93738 90.4192 14.4719 76.8582 30.5321 75.2337C20.3245 62.7288 21.0504 44.2765 32.7095 32.6173C44.3687 20.9582 62.8209 20.2323 75.3259 30.4398C76.9505 14.3797 90.5114 1.84522 107 1.84521C123.489 1.84521 137.049 14.3797 138.674 30.4398C151.179 20.2323 169.631 20.9581 181.29 32.6173C192.95 44.2765 193.675 62.7288 183.468 75.2337C199.528 76.8583 212.063 90.4192 212.063 106.908C212.063 123.396 199.528 136.957 183.468 138.582C193.675 151.087 192.95 169.539 181.29 181.198C169.631 192.857 151.179 193.583 138.674 183.376C137.049 199.436 123.489 211.97 107 211.97Z" fill="#FDFDFD" stroke="#009245" stroke-width="3" stroke-linecap="round"/>
<path d="M160.717 111.784C154.019 111.784 148.571 106.335 148.571 99.6377C148.571 92.94 154.019 87.4919 160.717 87.4919C167.414 87.4919 172.863 92.9405 172.863 99.6377C172.863 106.335 167.414 111.784 160.717 111.784ZM160.717 95.2336C158.288 95.2336 156.312 97.2095 156.312 99.6379C156.312 102.067 158.288 104.042 160.717 104.042C163.145 104.042 165.121 102.067 165.121 99.6379C165.121 97.2093 163.145 95.2336 160.717 95.2336Z" fill="#C9CFF2"/>
<path d="M59.0203 99.638C59.0203 94.4799 63.2169 90.2832 68.3751 90.2832C73.5334 90.2832 77.7299 94.4796 77.7299 99.638C77.7299 104.796 73.5332 108.993 68.3751 108.993C63.2169 108.993 59.0203 104.796 59.0203 99.638ZM64.9829 99.638C64.9829 101.509 66.5044 103.03 68.3753 103.03C70.2462 103.03 71.7678 101.509 71.7678 99.638C71.7678 97.7676 70.2462 96.2456 68.3753 96.2456C66.5047 96.2458 64.9829 97.7676 64.9829 99.638Z" fill="#C9CFF2"/>
<path d="M102.233 124.45C102.233 119.292 106.43 115.095 111.588 115.095C116.746 115.095 120.943 119.292 120.943 124.45C120.943 129.609 116.746 133.805 111.588 133.805C106.43 133.805 102.233 129.609 102.233 124.45ZM108.196 124.45C108.196 126.321 109.717 127.843 111.588 127.843C113.459 127.843 114.981 126.321 114.981 124.45C114.981 122.58 113.459 121.058 111.588 121.058C109.717 121.058 108.196 122.58 108.196 124.45Z" fill="#C9CFF2"/>
<path d="M127.233 144.381L122.897 140.045C122.299 139.447 121.399 139.268 120.618 139.592C119.837 139.916 119.327 140.678 119.327 141.523V144.647C119.327 146.204 118.061 147.471 116.503 147.471C114.945 147.471 113.679 146.204 113.679 144.647V127.843C113.679 126.688 112.742 125.752 111.588 125.752C110.433 125.752 109.497 126.688 109.497 127.843V144.647C109.497 146.204 108.23 147.471 106.672 147.471C105.115 147.471 103.848 146.204 103.848 144.647V141.523C103.848 140.678 103.339 139.916 102.557 139.592C101.776 139.268 100.877 139.447 100.279 140.045L95.9428 144.381C95.1262 145.198 95.1262 146.522 95.9428 147.338C96.7594 148.155 98.0833 148.155 98.8996 147.338L99.8778 146.36C100.644 149.398 103.399 151.653 106.672 151.653C108.586 151.653 110.322 150.881 111.587 149.634C112.853 150.882 114.589 151.653 116.503 151.653C119.776 151.653 122.531 149.398 123.297 146.36L124.275 147.338C125.092 148.155 126.416 148.155 127.232 147.338C128.049 146.522 128.049 145.198 127.233 144.381Z" fill="#626375"/>
<path d="M64.9482 97.5475H48.144C46.5867 97.5475 45.3196 96.2804 45.3196 94.7231C45.3196 93.1658 46.5867 91.8987 48.144 91.8987H51.2675C52.1135 91.8987 52.8755 91.3893 53.1992 90.608C53.5228 89.8266 53.3438 88.9274 52.7459 88.3293L48.4097 83.9934C47.5931 83.1766 46.2692 83.1768 45.4529 83.9934C44.6363 84.81 44.6363 86.1339 45.4529 86.9503L46.4308 87.9284C43.3931 88.6943 41.1376 91.4503 41.1376 94.7226C41.1376 96.6362 41.9091 98.3723 43.1572 99.6378C41.9091 100.904 41.1376 102.64 41.1376 104.554C41.1376 107.826 43.3931 110.582 46.431 111.348L45.4531 112.326C44.6365 113.143 44.6365 114.466 45.4531 115.283C45.8612 115.691 46.3965 115.896 46.9314 115.896C47.4663 115.896 48.0017 115.692 48.4097 115.283L52.7459 110.947C53.3438 110.349 53.5228 109.45 53.1992 108.668C52.8755 107.887 52.113 107.378 51.2675 107.378H48.144C46.5867 107.378 45.3196 106.111 45.3196 104.553C45.3196 102.996 46.5867 101.729 48.144 101.729H64.9482C66.1028 101.729 67.0391 100.793 67.0391 99.6381C67.0391 98.4834 66.1028 97.5475 64.9482 97.5475Z" fill="#626375"/>
<path d="M157.924 99.8322L113.343 90.2834L71.3394 102.524V110.315C79.4767 116.391 94.3447 120.458 111.34 120.458C137.07 120.458 157.929 111.137 157.929 99.6377C157.929 99.7028 157.925 99.7674 157.924 99.8322Z" fill="#CCF2BD"/>
<path opacity="0.1" d="M111.058 116.277C94.9485 116.277 80.6013 113.176 71.3389 108.346V110.316C79.4762 116.391 94.3442 120.459 111.34 120.459C133.348 120.459 151.789 113.639 156.665 104.47C148.503 111.455 131.148 116.277 111.058 116.277Z" fill="black"/>
<path d="M111.34 78.8174C94.3444 78.8174 79.4767 82.8849 71.3394 88.9602V102.524C86.8703 106.33 99.1226 99.6709 111.612 100.861C122.107 101.86 141.25 105.882 157.924 99.8324C157.925 99.7679 157.929 99.7033 157.929 99.6385C157.929 88.139 137.07 78.8174 111.34 78.8174Z" fill="#8CD76E"/>
<path d="M110.935 84.3933C130.762 84.3933 148.012 88.7814 156.889 95.2501C152.381 85.8588 133.702 78.8176 111.34 78.8176C94.3447 78.8176 79.477 82.8852 71.3396 88.9605V91.6078C80.9337 87.1904 95.1103 84.3933 110.935 84.3933Z" fill="#9CF07B"/>
<path d="M141.006 107.374C145.857 107.374 149.79 103.442 149.79 98.5908C149.79 93.7398 145.857 89.8074 141.006 89.8074C136.155 89.8074 132.223 93.7398 132.223 98.5908C132.223 103.442 136.155 107.374 141.006 107.374Z" fill="white"/>
<path d="M141.006 102.066C142.925 102.066 144.481 100.51 144.481 98.5907C144.481 96.6717 142.925 95.116 141.006 95.116C139.087 95.116 137.531 96.6717 137.531 98.5907C137.531 100.51 139.087 102.066 141.006 102.066Z" fill="#6E8066"/>
<path d="M123.698 110.248C123.329 110.248 122.956 110.151 122.617 109.946C120.403 108.605 119.028 105.981 119.028 103.098C119.028 100.281 120.357 97.6854 122.498 96.3252C123.473 95.7054 124.765 95.9938 125.384 96.9684C126.004 97.9429 125.716 99.2352 124.741 99.8547C123.811 100.446 123.21 101.719 123.21 103.098C123.21 104.506 123.827 105.79 124.784 106.369C125.772 106.967 126.087 108.253 125.489 109.24C125.096 109.89 124.406 110.248 123.698 110.248Z" fill="#6E8066"/>
<path d="M114.632 109.191C114.263 109.191 113.89 109.093 113.551 108.888C111.337 107.547 109.961 104.923 109.961 102.041C109.961 99.2232 111.291 96.6278 113.432 95.2673C114.407 94.6475 115.699 94.9359 116.318 95.9105C116.938 96.8851 116.649 98.1774 115.675 98.7969C114.745 99.3881 114.143 100.661 114.143 102.041C114.143 103.448 114.761 104.732 115.718 105.311C116.705 105.909 117.021 107.195 116.423 108.183C116.03 108.832 115.34 109.191 114.632 109.191Z" fill="#6E8066"/>
<path d="M105.1 109.47C104.731 109.47 104.357 109.372 104.018 109.167C101.804 107.826 100.429 105.202 100.429 102.32C100.429 99.5022 101.759 96.9068 103.899 95.5463C104.874 94.9265 106.166 95.2152 106.785 96.1895C107.405 97.1641 107.117 98.4564 106.142 99.0759C105.212 99.6671 104.611 100.94 104.611 102.32C104.611 103.727 105.228 105.011 106.185 105.59C107.173 106.188 107.489 107.474 106.89 108.462C106.497 109.111 105.807 109.47 105.1 109.47Z" fill="#6E8066"/>
</svg>
