<svg width="37" height="50" viewBox="0 0 37 50" fill="none" xmlns="http://www.w3.org/2000/svg">
<path d="M18.3517 48.98L29.5391 31.1201L7.21427 31.1201L18.3517 48.98Z" fill="#FDFDFD" stroke="#009245" stroke-width="2" stroke-linejoin="round"/>
<circle cx="18.3767" cy="18.8398" r="16.8598" fill="#FDFDFD" stroke="#009245" stroke-width="2"/>
<path d="M28.4167 18.8202C28.4167 19.5266 27.8935 20.0799 27.3004 20.0799H26.1842L26.2086 26.3627C26.2086 26.4726 26.2016 26.5746 26.1911 26.6806V27.3163C26.1911 28.1836 25.5667 28.886 24.7958 28.886H24.2376C24.1993 28.886 24.1609 28.8507 24.1225 28.8821C24.0737 28.8507 24.0248 28.886 23.976 28.886H22.0051C21.2341 28.886 20.6097 28.1836 20.6097 27.3163V23.8629C20.6097 23.1683 20.1109 22.6072 19.4934 22.6072H17.2609C16.6434 22.6072 16.1446 23.1683 16.1446 23.8629V27.3163C16.1446 28.1836 15.5201 28.886 14.7492 28.886H12.7992C12.7469 28.886 12.6945 28.8821 12.6422 28.8782C12.6004 28.8821 12.5585 28.886 12.5166 28.886H11.9585C11.1879 28.886 10.5631 28.1836 10.5631 27.3163V22.9211C10.5631 22.8858 10.5642 22.8465 10.5663 22.8112V20.0799H9.4486C8.81964 20.0799 8.33057 19.5266 8.33057 18.8202C8.33057 18.467 8.43536 18.1531 8.67975 17.8784L17.6236 9.10827C17.8678 8.83302 18.1469 8.7937 18.3911 8.7937C18.6353 8.7937 18.9144 8.87234 19.1271 9.06895L28.033 17.8784C28.3121 18.1531 28.4551 18.467 28.4167 18.8202Z" fill="#009245"/>
</svg>
