<svg width="36" height="50" viewBox="0 0 36 50" fill="none" xmlns="http://www.w3.org/2000/svg">
<path d="M18.0844 48.98L29.2717 31.1201L6.94694 31.1201L18.0844 48.98Z" fill="#FDFDFD" stroke="#009245" stroke-width="2" stroke-linejoin="round"/>
<circle cx="18.1093" cy="18.8398" r="16.8598" fill="#FDFDFD" stroke="#009245" stroke-width="2"/>
<g clip-path="url(#clip0_55_17)">
<path d="M28.0252 22.0813L27.3628 20.8255C27.1283 20.3821 26.617 20.0956 26.0564 20.0956H10.1601C9.60041 20.0956 9.09182 20.3821 8.85682 20.8255L8.1944 22.0813C7.98975 22.4701 8.0255 22.9239 8.28898 23.2845C8.55247 23.6451 9.00885 23.8629 9.45779 23.8629L9.45784 28.2581C9.45784 28.6049 9.77913 28.886 10.1754 28.886H11.6106C12.007 28.886 12.3282 28.6049 12.3282 28.2581V23.8629H23.8095V28.2581C23.8095 28.6049 24.1308 28.886 24.5271 28.886H25.9219C26.3182 28.886 26.6395 28.6049 26.6395 28.2581L26.7201 23.8629C27.2094 23.8629 27.6656 23.6447 27.9288 23.2841C28.1921 22.9235 28.2271 22.4698 28.0252 22.0813ZM13.0457 13.8168C13.0457 12.6599 13.7723 11.6937 14.8397 11.1141V18.8399H16.9924L16.9928 10.6774H19.1456L19.1452 18.8399H21.2979L21.2983 11.113C22.4057 11.6584 23.0919 12.6599 23.0919 13.8168L23.0914 18.8399H25.2455L25.245 13.8168C25.245 11.0427 22.6747 8.7937 19.5043 8.7937H16.6336C13.5032 8.7937 10.9324 11.0427 10.9324 13.8168L10.9331 18.8399H13.0845L13.0457 13.8168Z" fill="#009245"/>
</g>
<defs>
<clipPath id="clip0_55_17">
<rect width="20.0923" height="20.0923" fill="white" transform="translate(8.06323 8.7937)"/>
</clipPath>
</defs>
</svg>
