<svg width="34" height="34" viewBox="0 0 34 34" fill="none" xmlns="http://www.w3.org/2000/svg">
<path d="M32.9991 29.7371V24.9198C33.0186 24.1322 32.7475 23.365 32.2371 22.7639C30.7982 21.069 25.863 19.9849 23.9068 20.4012C22.382 20.7258 21.3149 22.2569 20.2719 23.2979C16.2438 21.0119 12.9086 17.6833 10.6181 13.6631C11.6612 12.6222 13.1954 11.5574 13.5206 10.0355C13.9372 8.08612 12.8545 3.1825 11.1712 1.73778C10.5792 1.22962 9.82218 0.953658 9.04134 0.961338H4.21442C2.37525 0.963062 0.84511 2.61265 1.01256 4.46197C0.999991 20.4012 13.4445 32.9612 29.4915 32.9486C31.3507 33.1164 33.0065 31.5787 32.9991 29.7371Z" stroke="#009245" stroke-width="1.5" stroke-linecap="round" stroke-linejoin="round"/>
</svg>
